PathFileType	4	(X/Y/Z)	/Users/itak/Documents/Research/Walk-IL/dataset/trc/00316_00010.trc
DataRate	CameraRate	NumFrames	NumMarkers	Units	OrigDataRate	OrigDataStartFrame	OrigNumFrames
100.000000	100.000000	4	53	mm	100.000000	203	542
Frame#	Time	RPSI			LPSI			L3			STRN			T10			C7			CLAV			RBAK			LBAK			LSHO			LUPA			LAEL			LAOL			LWTS			LWPS			LFRA			LIFD			LHPS			LHTS			RSHO			RUPA			RAEL			RAOL			RWTS			RWPS			RFRA			RIFD			RHTS			RHPS			RBHD			LFHD			RFHD			LBHD			LHIP			RHIP			RASI			LASI			LKNE			LTHI			LANK			LTIP			LTOE			LMT1			LMT5			LHEE			RKNE			RTHI			RANK			RTIP			RTOE			RMT1			RMT5			RHEE			
		X1	Y1	Z1	X2	Y2	Z2	X3	Y3	Z3	X4	Y4	Z4	X5	Y5	Z5	X6	Y6	Z6	X7	Y7	Z7	X8	Y8	Z8	X9	Y9	Z9	X10	Y10	Z10	X11	Y11	Z11	X12	Y12	Z12	X13	Y13	Z13	X14	Y14	Z14	X15	Y15	Z15	X16	Y16	Z16	X17	Y17	Z17	X18	Y18	Z18	X19	Y19	Z19	X20	Y20	Z20	X21	Y21	Z21	X22	Y22	Z22	X23	Y23	Z23	X24	Y24	Z24	X25	Y25	Z25	X26	Y26	Z26	X27	Y27	Z27	X28	Y28	Z28	X29	Y29	Z29	X30	Y30	Z30	X31	Y31	Z31	X32	Y32	Z32	X33	Y33	Z33	X34	Y34	Z34	X35	Y35	Z35	X36	Y36	Z36	X37	Y37	Z37	X38	Y38	Z38	X39	Y39	Z39	X40	Y40	Z40	X41	Y41	Z41	X42	Y42	Z42	X43	Y43	Z43	X44	Y44	Z44	X45	Y45	Z45	X46	Y46	Z46	X47	Y47	Z47	X48	Y48	Z48	X49	Y49	Z49	X50	Y50	Z50	X51	Y51	Z51	X52	Y52	Z52	X53	Y53	Z53	

204	2.03	-372.6136169433594	972.5509643554688	-460.0440368652344	-300.5478515625	982.868896484375	-619.8768920898438	-316.8985595703125	1053.275146484375	-543.1510009765625	-78.59880065917969	1219.020751953125	-428.6338195800781	-316.3809204101562	1174.336547851562	-552.8621826171875	-250.3639373779297	1413.111694335938	-551.8646240234375	-121.9128494262695	1325.3544921875	-462.827880859375	-344.4879150390625	1285.377807617188	-506.7423095703125	-210.8331146240234	1370.783325195312	-648.131103515625	-107.1190872192383	1374.274047851562	-644.7944946289062	-78.91234588623047	1257.35205078125	-717.1238403320312	-22.60271453857422	1064.733032226562	-707.4332275390625	-99.53920745849609	1025.764282226562	-689.8937377929688	126.6012420654297	958.347412109375	-570.1197509765625	138.1461639404297	918.349853515625	-629.17626953125	39.41086196899414	990.8856201171875	-682.8377685546875	246.9080200195312	831.5675048828125	-506.1115112304688	193.9286193847656	861.29150390625	-594.123291015625	211.603759765625	904.4596557617188	-547.1016845703125	-272.943115234375	1402.730834960938	-379.5841369628906	-321.16162109375	1357.599975585938	-325.7304077148438	-429.365234375	1116.001098632812	-291.6953430175781	-398.9497680664062	1095.991333007812	-379.0239868164062	-393.0376892089844	872.4995727539062	-252.6303405761719	-473.8724060058594	892.0233764648438	-233.2176666259766	-440.787841796875	1050.757080078125	-264.5278015136719	-444.8048706054688	691.9660034179688	-237.3946380615234	-420.2293090820312	761.515380859375	-213.5511474609375	-487.9773864746094	781.976318359375	-214.3030548095703	-262.245849609375	1562.726928710938	-487.7134094238281	-54.20529937744141	1592.561279296875	-458.0213317871094	-116.3621978759766	1587.104125976562	-389.6856994628906	-162.3362884521484	1561.415405273438	-594.527587890625	-198.792236328125	937.4346313476562	-683.1522216796875	-318.5378112792969	915.4196166992188	-328.9735412597656	-180.7520446777344	921.4561767578125	-346.3447570800781	-88.51674652099609	931.3045043945312	-579.0880737304688	-223.4191436767578	469.5191650390625	-649.4956665039062	-195.76611328125	610.5487670898438	-663.9334106445312	-400.3640441894531	50.13496398925781	-685.2051391601562	-313.9974670410156	255.1416015625	-679.626953125	-242.4707489013672	36.25400924682617	-540.7560424804688	-323.0372924804688	31.93794250488281	-537.4498291015625	-285.3389587402344	39.9875373840332	-643.1144409179688	-469.0235290527344	55.36162948608398	-651.853271484375	-130.3438262939453	479.1752319335938	-302.3566589355469	-227.1512908935547	724.8521118164062	-291.4721069335938	-11.93638610839844	40.80376815795898	-294.7122497558594	-74.86730194091797	370.3499145507812	-292.9559631347656	170.6887664794922	115.5637664794922	-279.9417114257812	137.5894775390625	89.80686187744141	-334.7552490234375	75.49779510498047	64.25288391113281	-238.8782196044922	-41.39205551147461	26.16580963134766	-357.4992065429688	
205	2.04	-364.0987243652344	970.2957153320312	-455.6567993164062	-291.6014709472656	980.93408203125	-615.30029296875	-308.3039855957031	1050.828247070312	-538.9273071289062	-71.35007476806641	1217.380615234375	-423.3885803222656	-308.0831909179688	1171.78369140625	-549.0098876953125	-242.8709869384766	1410.858764648438	-547.957763671875	-114.7790603637695	1323.67431640625	-457.8229370117188	-336.7766418457031	1282.803588867188	-503.4107360839844	-202.5842742919922	1368.512451171875	-643.92041015625	-98.94696044921875	1372.304809570312	-639.8153686523438	-70.02178192138672	1255.29052734375	-711.8187866210938	-13.42526817321777	1063.466552734375	-701.265869140625	-89.97678375244141	1023.418518066406	-684.387451171875	136.6426544189453	963.6098022460938	-561.1152954101562	150.0253753662109	922.7564086914062	-619.1702880859375	49.80756378173828	991.5490112304688	-675.3294067382812	259.4365539550781	841.6393432617188	-492.8524780273438	206.7447204589844	867.8515625	-582.0917358398438	222.7535247802734	912.5922241210938	-535.9100952148438	-266.8375549316406	1400.735473632812	-375.9253540039062	-315.548828125	1355.917236328125	-322.75732421875	-425.6583557128906	1115.154418945312	-290.9555053710938	-393.3914184570312	1094.701049804688	-377.3690795898438	-392.264892578125	871.6000366210938	-250.0440521240234	-473.4940490722656	891.8231811523438	-232.8117523193359	-438.3409118652344	1050.16064453125	-263.7534484863281	-446.2434387207031	691.548583984375	-236.2626800537109	-421.5172119140625	760.8282470703125	-211.7539367675781	-489.101318359375	781.8662109375	-214.2133026123047	-255.4769744873047	1560.776000976562	-483.8101196289062	-47.75920486450195	1590.58056640625	-452.1529235839844	-110.4314346313477	1584.996459960938	-384.4252624511719	-154.6261138916016	1559.675659179688	-589.7274780273438	-189.7781982421875	935.5462036132812	-678.3834228515625	-310.520751953125	912.9442138671875	-324.493408203125	-172.6723785400391	919.2725830078125	-341.5264282226562	-79.55545043945312	929.1613159179688	-573.9647827148438	-218.5401763916016	468.2598876953125	-646.8538818359375	-189.5257415771484	609.0488891601562	-660.5252075195312	-400.049560546875	50.75851821899414	-685.138671875	-311.4000549316406	254.9566497802734	-678.3534545898438	-242.4134521484375	36.03281021118164	-540.6592407226562	-323.0287475585938	31.87400245666504	-537.4077758789062	-285.2173156738281	40.06678771972656	-642.9869995117188	-468.7696228027344	56.48643112182617	-651.9561767578125	-123.4705047607422	476.0908508300781	-299.3998107910156	-220.3824310302734	721.570068359375	-287.1260986328125	6.262312412261963	40.91201019287109	-288.9740295410156	-66.38677978515625	368.95556640625	-289.0612487792969	186.3337860107422	120.9707107543945	-269.45556640625	155.1580657958984	94.29122924804688	-324.9511413574219	91.54235076904297	66.65837097167969	-230.8418731689453	-21.21949577331543	25.63911056518555	-352.4860534667969	
206	2.05	-355.5181884765625	968.0223388671875	-451.08837890625	-282.5834655761719	978.963623046875	-610.5488891601562	-299.5824584960938	1048.324951171875	-534.5244750976562	-64.02581787109375	1215.698364257812	-417.9911804199219	-299.6418762207031	1169.126586914062	-545.0011596679688	-235.3334045410156	1408.529052734375	-543.9269409179688	-107.5609893798828	1321.947998046875	-452.679443359375	-328.9761352539062	1280.12255859375	-499.9364929199219	-194.2469787597656	1366.188720703125	-639.6074829101562	-90.72474670410156	1370.28759765625	-634.732421875	-61.15544128417969	1253.147216796875	-706.398193359375	-4.40541410446167	1062.056274414062	-695.085205078125	-80.5772705078125	1021.015441894531	-678.7332153320312	146.2760314941406	968.6283569335938	-552.2305908203125	161.4102172851562	926.9050903320312	-609.2276611328125	59.93477249145508	992.0668334960938	-667.8118286132812	271.1719665527344	851.4835815429688	-479.6873168945312	218.9165191650391	874.1903686523438	-570.117431640625	233.3170013427734	920.4292602539062	-524.861083984375	-260.6804504394531	1398.642822265625	-372.1448669433594	-309.8967895507812	1354.1162109375	-319.6849975585938	-421.7254638671875	1114.146850585938	-289.990478515625	-387.6837768554688	1093.263549804688	-375.4980163574219	-391.1573791503906	870.5538330078125	-247.4844970703125	-472.719970703125	891.4495239257812	-232.3046569824219	-435.5752868652344	1049.395874023438	-262.8003540039062	-447.3150939941406	690.9752197265625	-235.3160095214844	-422.4051818847656	759.9728393554688	-210.1146240234375	-489.7546691894531	781.572509765625	-214.1089477539062	-248.6973876953125	1558.782104492188	-479.8193359375	-41.32090759277344	1588.603149414062	-446.2151794433594	-104.5037231445312	1582.890625	-379.0923156738281	-146.9357452392578	1557.8896484375	-584.8408203125	-180.7141876220703	933.6121215820312	-673.446044921875	-302.4621887207031	910.5034790039062	-319.8325500488281	-164.5129547119141	917.0732421875	-336.5589904785156	-70.57707977294922	926.907470703125	-568.7682495117188	-213.4362487792969	466.9537048339844	-644.07666015625	-183.0793304443359	607.49267578125	-656.9718017578125	-399.665771484375	51.5037727355957	-685.0877685546875	-308.6168823242188	254.7968292236328	-677.00439453125	-242.3607940673828	35.81567001342773	-540.5717163085938	-323.0175476074219	31.82191467285156	-537.3794555664062	-285.0624389648438	40.16796112060547	-642.8690795898438	-468.4428100585938	57.7869758605957	-652.08837890625	-116.2439117431641	473.1693420410156	-296.4230346679688	-213.1333770751953	718.407470703125	-282.6640625	22.26403427124023	40.74871444702148	-284.2076721191406	-58.0114860534668	367.3493041992188	-285.3634338378906	199.9145355224609	125.0904998779297	-259.3738403320312	170.7259368896484	97.77600860595703	-315.6913146972656	105.2422332763672	68.23940277099609	-223.5713043212891	-3.156419515609741	25.12492942810059	-348.5084838867188	
207	2.06	-346.8841552734375	965.7776489257812	-446.3464660644531	-273.500244140625	976.982666015625	-605.6263427734375	-290.7349548339844	1045.797973632812	-529.9497680664062	-56.61302947998047	1213.986938476562	-412.4388427734375	-291.05078125	1166.395751953125	-540.8385009765625	-227.7428894042969	1406.1494140625	-539.7661743164062	-100.2363357543945	1320.183959960938	-447.3919372558594	-321.075927734375	1277.358154296875	-496.3152770996094	-185.7905426025391	1363.841064453125	-635.1976928710938	-82.42595672607422	1368.24072265625	-629.53271484375	-52.29483795166016	1250.9404296875	-700.8470458984375	4.484147071838379	1060.516723632812	-688.8829345703125	-71.31907653808594	1018.579284667969	-672.9415893554688	155.5305023193359	973.3551635742188	-543.46728515625	172.3278045654297	930.768310546875	-599.3564453125	69.81278991699219	992.4406127929688	-660.2843017578125	282.1500854492188	861.0164794921875	-466.6574401855469	230.4834136962891	880.2616577148438	-558.2388305664062	243.3276672363281	927.89990234375	-513.9727172851562	-254.4515838623047	1396.468994140625	-368.2320251464844	-304.1820983886719	1352.205200195312	-316.4957580566406	-417.5527038574219	1112.984741210938	-288.7802734375	-381.811767578125	1091.687744140625	-373.3995361328125	-389.711181640625	869.3623046875	-244.9508056640625	-471.5325317382812	890.9151000976562	-231.6645202636719	-432.4773559570312	1048.4677734375	-261.6490478515625	-448.0023803710938	690.2508544921875	-234.5229949951172	-422.8855895996094	758.963134765625	-208.5980682373047	-489.9325561523438	781.1045532226562	-213.9575958251953	-241.9081268310547	1556.757934570312	-475.7398681640625	-34.89509582519531	1586.665405273438	-440.2024230957031	-98.58149719238281	1580.818603515625	-373.6856994628906	-139.2610168457031	1556.076782226562	-579.8667602539062	-171.5827178955078	931.6385498046875	-668.3343505859375	-294.3362121582031	908.128173828125	-314.9971923828125	-156.2595825195312	914.8804931640625	-331.4455261230469	-61.57586669921875	924.5771484375	-563.4915771484375	-208.099853515625	465.6201171875	-641.1576538085938	-176.4176635742188	605.9049682617188	-653.2714233398438	-399.211669921875	52.40827560424805	-685.0511474609375	-305.6413879394531	254.6876831054688	-675.5718994140625	-242.3133087158203	35.60596084594727	-540.4896850585938	-322.9949645996094	31.7908821105957	-537.3655395507812	-284.8699951171875	40.29269409179688	-642.7586059570312	-468.0365905761719	59.30532455444336	-652.2460327148438	-108.6655197143555	470.4490661621094	-293.3692626953125	-205.3901214599609	715.4336547851562	-278.0955810546875	36.05523300170898	40.23826599121094	-280.4492797851562	-49.67600631713867	365.5242004394531	-281.8134460449219	211.5514221191406	127.5865478515625	-249.9217071533203	184.3499908447266	99.99049377441406	-307.1671142578125	116.7075042724609	68.81179046630859	-217.2050476074219	12.70227718353271	24.57477378845215	-345.5789184570312	
